<?xml version="1.0" encoding="UTF-8"?>
<svg id="Layer_1" xmlns="http://www.w3.org/2000/svg" version="1.1" viewBox="0 0 600 200">
  <!-- Generator: Adobe Illustrator 29.5.1, SVG Export Plug-In . SVG Version: 2.1.0 Build 141)  -->
  <defs>
    <style>
      .st0 {
        fill: #81bd47;
      }

      .st1 {
        fill: #fff;
      }
    </style>
  </defs>
  <path class="st1" d="M114.05,115.78h60.82c26.09,0,36.43-7.13,36.43-21.61v-1.02c0-9.85-5.87-14.82-12.04-17.54,6.02-2.72,11.27-7.13,11.27-16.52v-1.13c-.31-14.6-10.65-22.07-36.74-22.07h-59.74c-2.47,0-3.86,1.02-3.86,2.83v74.23c0,1.81,1.39,2.83,3.86,2.83ZM131.49,50.94h40.9c9.88,0,15.9,1.81,15.9,8.6v1.81c0,6.56-6.02,8.03-14.05,8.03h-42.76v-18.45ZM131.49,82.06h43.53c8.33,0,14.35,1.92,14.35,8.6v1.81c0,6.79-6.33,8.37-15.9,8.37h-41.98v-18.79Z"/>
  <path class="st1" d="M6.47,115.78h84.43c2.47,0,3.86-1.02,3.86-2.83v-9.39c0-1.81-1.39-2.83-3.86-2.83H23.91v-18.45h43.37c2.47,0,3.86-1.02,3.86-2.83v-8.26c0-1.81-1.39-2.83-3.86-2.83H23.91v-17.43h66.99c2.47,0,3.86-1.02,3.86-2.83v-9.39c0-1.81-1.39-2.83-3.86-2.83H6.47c-2.47,0-3.86,1.02-3.86,2.83v74.23c0,1.81,1.39,2.83,3.86,2.83Z"/>
  <path class="st1" d="M541.45,69.95l-34.42-1.92c-10.34-.57-14.35-2.15-14.35-8.37,0-6.68,4.17-8.71,16.05-8.71h27.94c9.88,0,14.05,2.49,14.97,9.05.15,1.81,1.39,2.83,3.86,2.83h13.89c2.47,0,3.86-1.02,3.7-2.94-1.08-15.96-12.04-23.99-36.43-23.99h-28.25c-26.86,0-36.89,8.37-36.89,23.65s9.42,20.6,33.19,21.95l34.42,1.92c10.34.57,14.35,2.26,14.35,8.6s-4.17,8.71-15.9,8.71h-30.25c-10.03,0-14.2-2.49-15.13-9.05-.15-1.81-1.39-2.83-3.86-2.83h-13.74c-2.47,0-3.86,1.02-3.7,2.94,1.08,15.96,11.89,23.99,36.43,23.99h30.41c27.01,0,37.05-8.37,37.05-23.65s-9.88-20.82-33.34-22.18Z"/>
  <path class="st1" d="M420.13,100.73h-30.25c-10.03,0-14.2-2.49-15.13-9.05-.15-1.81-1.39-2.83-3.86-2.83h-13.74c-2.47,0-3.86,1.02-3.7,2.94,1.08,15.96,11.89,23.99,36.43,23.99h30.41c27.01,0,37.05-8.37,37.05-23.65s-9.88-20.82-33.34-22.18l-34.42-1.92c-10.34-.57-14.36-2.15-14.36-8.37,0-6.68,4.17-8.71,16.05-8.71h27.94c9.88,0,14.05,2.49,14.97,9.05.15,1.81,1.39,2.83,3.86,2.83h13.89c2.47,0,3.86-1.02,3.7-2.94-1.08-15.96-12.04-23.99-36.43-23.99h-28.25c-26.86,0-36.89,8.37-36.89,23.65s9.42,20.6,33.19,21.95l34.42,1.92c10.34.57,14.36,2.26,14.36,8.6s-4.17,8.71-15.9,8.71Z"/>
  <path class="st1" d="M262.54,115.78h39.67c25.62,0,36.58-10.64,36.58-27.5v-24.78c0-16.97-10.96-27.61-36.58-27.61h-39.67c-25.62,0-36.58,10.64-36.58,27.61v24.78c0,16.86,10.96,27.5,36.58,27.5ZM247.41,62.93c0-9.85,4.48-12,15.13-12h39.67c10.8,0,15.13,2.15,15.13,12v25.91c0,9.73-4.78,11.88-15.13,11.88h-39.67c-10.34,0-15.13-2.15-15.13-11.88v-25.91Z"/>
  <path class="st1" d="M588.61,37.61c3.82,0,6.59,3.08,6.59,6.9s-2.77,6.8-6.54,6.8-6.69-3.03-6.69-6.85,2.82-6.85,6.64-6.85ZM588.61,35.89c-4.91,0-8.84,3.82-8.84,8.57s3.92,8.68,8.84,8.68,8.78-3.82,8.78-8.68-3.82-8.57-8.78-8.57ZM587.3,41.64c.21-.05.57-.1,1.1-.1,1.25,0,1.83.52,1.83,1.31,0,.89-.89,1.25-1.99,1.25h-.94v-2.46ZM587.25,45.51h.94c1.1,0,1.62.42,1.78,1.36.26.99.42,1.78.68,2.09h2.14c-.21-.31-.37-.84-.63-2.14-.26-1.15-.73-1.78-1.57-2.09v-.1c1.05-.31,1.78-1.05,1.78-1.99,0-.84-.37-1.52-.84-1.88-.63-.37-1.36-.63-2.98-.63-1.41,0-2.51.1-3.29.26v8.57h1.99v-3.45Z"/>
  <path class="st0" d="M550.91,163.32c2.89.24,5.68.42,8.39.56l3.66.16c1.51.05,2.94.08,4.29.08,2.6,0,4.5-.61,5.72-1.83,1.22-1.22,1.83-3.13,1.83-5.72v-1.99c0-2.6-.61-4.5-1.83-5.72-1.22-1.22-3.13-1.83-5.72-1.83h-7.15c-1.59,0-2.38-.79-2.38-2.38v-.79c0-1.59.79-2.38,2.38-2.38h12.36v-5.56h-13.95c-2.78,0-4.8.63-6.06,1.89-1.26,1.26-1.89,3.28-1.89,6.06v1.19c0,2.78.63,4.8,1.89,6.06,1.26,1.26,3.28,1.89,6.06,1.89h9.14v3.58c0,.61-.18,1.09-.54,1.45-.36.36-.84.54-1.45.54-2.57,0-7.49-.2-14.75-.6v5.37ZM538.25,163.72h7.15v-27.82h-7.55l-7.95,14.71-7.95-14.71h-7.55v27.82h7.15v-15.5l5.56,9.94h5.56l5.56-9.94v15.5ZM509.46,158.15h-14.9v-5.76h11.72v-5.56h-11.72v-5.37h14.9v-5.56h-22.06v27.82h22.06v-5.56ZM474.29,141.46h8.35v-5.56h-23.85v5.56h8.35v22.26h7.15v-22.26ZM431.96,163.32c2.89.24,5.68.42,8.39.56l3.66.16c1.51.05,2.94.08,4.29.08,2.6,0,4.5-.61,5.72-1.83,1.22-1.22,1.83-3.13,1.83-5.72v-1.99c0-2.6-.61-4.5-1.83-5.72-1.22-1.22-3.13-1.83-5.72-1.83h-7.15c-1.59,0-2.38-.79-2.38-2.38v-.79c0-1.59.79-2.38,2.38-2.38h12.36v-5.56h-13.95c-2.78,0-4.8.63-6.06,1.89-1.26,1.26-1.89,3.28-1.89,6.06v1.19c0,2.78.63,4.8,1.89,6.06,1.26,1.26,3.28,1.89,6.06,1.89h9.14v3.58c0,.61-.18,1.09-.54,1.45-.36.36-.84.54-1.45.54-2.57,0-7.49-.2-14.75-.6v5.37ZM411.39,156.36v7.35h7.15v-7.35l10.53-20.47h-7.55l-6.56,13.51-6.56-13.51h-7.55l10.53,20.47ZM374.57,163.32c2.89.24,5.68.42,8.39.56l3.66.16c1.51.05,2.94.08,4.29.08,2.6,0,4.5-.61,5.72-1.83,1.22-1.22,1.83-3.13,1.83-5.72v-1.99c0-2.6-.61-4.5-1.83-5.72-1.22-1.22-3.13-1.83-5.72-1.83h-7.15c-1.59,0-2.38-.79-2.38-2.38v-.79c0-1.59.79-2.38,2.38-2.38h12.36v-5.56h-13.95c-2.78,0-4.8.63-6.06,1.89-1.26,1.26-1.89,3.28-1.89,6.06v1.19c0,2.78.63,4.8,1.89,6.06,1.26,1.26,3.28,1.89,6.06,1.89h9.14v3.58c0,.61-.18,1.09-.54,1.45-.36.36-.84.54-1.45.54-2.57,0-7.49-.2-14.75-.6v5.37ZM339.28,156.36v7.35h7.15v-7.35l10.53-20.47h-7.55l-6.56,13.51-6.56-13.51h-7.55l10.53,20.47ZM326.18,147.82h-12.32v4.77h5.17v5.76c-2.52.13-5.3.2-8.35.2-.61,0-1.09-.18-1.45-.54-.36-.36-.54-.84-.54-1.45v-12.72c0-1.59.79-2.38,2.38-2.38h12.72v-5.56h-14.31c-2.78,0-4.8.63-6.06,1.89-1.26,1.26-1.89,3.28-1.89,6.06v12.72c0,2.6.61,4.5,1.83,5.72,1.22,1.22,3.13,1.83,5.72,1.83,5.19,0,10.89-.33,17.09-.99v-15.3ZM289.45,147.42c0,1.59-.79,2.38-2.38,2.38h-7.95v-8.35h7.95c1.59,0,2.38.79,2.38,2.38v3.58ZM271.96,163.72h7.15v-8.35h5.56l4.57,8.35h7.75l-4.97-8.74c1.59-.4,2.75-1.21,3.48-2.42.73-1.22,1.09-2.93,1.09-5.13v-3.58c0-2.78-.63-4.8-1.89-6.06-1.26-1.26-3.28-1.89-6.06-1.89h-16.69v27.82ZM267.01,158.15h-14.9v-5.76h11.72v-5.56h-11.72v-5.37h14.9v-5.56h-22.06v27.82h22.06v-5.56ZM239.12,135.89h-7.15v16.69l-9.54-16.69h-7.55v27.82h7.15v-16.69l9.54,16.69h7.55v-27.82ZM209.93,158.15h-14.9v-5.76h11.72v-5.56h-11.72v-5.37h14.9v-5.56h-22.06v27.82h22.06v-5.56ZM159.89,154.57c0,2.38-1.19,3.58-3.58,3.58h-6.76v-16.69h6.76c2.38,0,3.58,1.19,3.58,3.58v9.54ZM142.41,135.89v27.82h15.5c2.99,0,5.27-.77,6.82-2.33s2.33-3.82,2.33-6.82v-9.54c0-2.99-.77-5.27-2.33-6.82s-3.82-2.33-6.82-2.33h-15.5ZM137.26,158.15h-3.58v-16.69h3.58v-5.56h-14.31v5.56h3.58v16.69h-3.58v5.56h14.31v-5.56ZM110.79,147.42c0,1.59-.79,2.38-2.38,2.38h-7.95v-8.35h7.95c1.59,0,2.38.79,2.38,2.38v3.58ZM93.31,163.72h7.15v-8.35h5.56l4.57,8.35h7.75l-4.97-8.74c1.59-.4,2.75-1.21,3.48-2.42.73-1.22,1.09-2.93,1.09-5.13v-3.58c0-2.78-.63-4.8-1.89-6.06-1.26-1.26-3.28-1.89-6.06-1.89h-16.69v27.82ZM79.84,144.64c0,1.59-.79,2.38-2.38,2.38h-6.76v-5.56h6.76c1.59,0,2.38.79,2.38,2.38v.79ZM81.03,155.77c0,1.59-.79,2.38-2.38,2.38h-7.95v-5.56h7.95c1.59,0,2.38.79,2.38,2.38v.79ZM63.54,163.72h17.09c2.6,0,4.5-.61,5.72-1.83,1.22-1.22,1.83-3.13,1.83-5.72,0-1.09-.13-2.04-.4-2.86-.77-2.28-2.23-3.71-4.37-4.29,1.01-.4,1.85-1.09,2.54-2.09.69-.99,1.03-2.29,1.03-3.88,0-2.41-.61-4.21-1.83-5.39-1.22-1.18-3.13-1.77-5.72-1.77h-15.9v27.82ZM41.61,156.36v7.35h7.15v-7.35l10.53-20.47h-7.55l-6.56,13.51-6.56-13.51h-7.55l10.53,20.47ZM26.85,135.89h-7.15v10.93h-9.94v-10.93H2.61v27.82h7.15v-11.33h9.94v11.33h7.15v-27.82Z"/>
</svg>